<!-- Generated by IcoMoon.io -->
<svg version="1.1" xmlns="http://www.w3.org/2000/svg" width="32" height="32" viewBox="0 0 32 32">
<title>instagram</title>
<path d="M16 10.667c-1.415 0-2.771 0.562-3.771 1.562s-1.562 2.357-1.562 3.771c0 1.415 0.562 2.771 1.562 3.771s2.357 1.562 3.771 1.562 2.771-0.562 3.771-1.562c1-1 1.562-2.357 1.562-3.771s-0.562-2.771-1.562-3.771c-1-1-2.357-1.562-3.771-1.562z"></path>
<path d="M9.6 0c-2.546 0-4.988 1.011-6.788 2.812s-2.812 4.242-2.812 6.788v12.8c0 2.546 1.011 4.988 2.812 6.788s4.242 2.812 6.788 2.812h12.8c2.546 0 4.988-1.011 6.788-2.812s2.812-4.242 2.812-6.788v-12.8c0-2.546-1.011-4.988-2.812-6.788s-4.242-2.812-6.788-2.812h-12.8zM8.533 16c0-1.98 0.787-3.879 2.187-5.28s3.299-2.187 5.28-2.187c1.98 0 3.879 0.787 5.28 2.187s2.187 3.299 2.187 5.28-0.787 3.879-2.187 5.28c-1.4 1.4-3.3 2.187-5.28 2.187s-3.879-0.787-5.28-2.187c-1.4-1.4-2.187-3.3-2.187-5.28zM23.467 8.533v-2.133h2.133v2.133h-2.133z"></path>
</svg>
