<!-- Generated by IcoMoon.io -->
<svg version="1.1" xmlns="http://www.w3.org/2000/svg" width="32" height="32" viewBox="0 0 32 32">
<title>Phone</title>
<path d="M22.667 28.001c-2.205-0.002-4.376-0.547-6.32-1.587l-0.6-0.333c-4.146-2.229-7.544-5.628-9.773-9.773l-0.333-0.6c-1.067-1.955-1.63-4.146-1.64-6.373v-0.893c-0.001-0.711 0.283-1.392 0.787-1.893l2.253-2.253c0.219-0.221 0.528-0.327 0.836-0.288s0.581 0.219 0.737 0.488l3 5.147c0.303 0.524 0.216 1.186-0.213 1.613l-2.52 2.52c-0.209 0.207-0.258 0.527-0.12 0.787l0.467 0.88c1.676 3.105 4.226 5.65 7.333 7.32l0.88 0.48c0.26 0.138 0.58 0.089 0.787-0.12l2.52-2.52c0.427-0.429 1.089-0.517 1.613-0.213l5.147 3c0.268 0.157 0.448 0.429 0.488 0.737s-0.067 0.617-0.288 0.836l-2.253 2.253c-0.501 0.504-1.183 0.787-1.893 0.787h-0.893z"></path>
</svg>
