<!-- Generated by IcoMoon.io -->
<svg version="1.1" xmlns="http://www.w3.org/2000/svg" width="34" height="32" viewBox="0 0 34 32">
<title>plus</title>
<path d="M32.762 16c0 0.185-0.073 0.361-0.204 0.492s-0.307 0.204-0.492 0.204h-14.609v14.609c0 0.185-0.073 0.361-0.204 0.492s-0.307 0.204-0.492 0.204c-0.185 0-0.361-0.073-0.492-0.204s-0.204-0.307-0.204-0.492v-14.609h-14.609c-0.184 0-0.361-0.073-0.492-0.204s-0.204-0.307-0.204-0.492c0-0.185 0.073-0.361 0.204-0.492s0.307-0.204 0.492-0.204h14.609v-14.609c0-0.184 0.073-0.361 0.204-0.492s0.307-0.204 0.492-0.204c0.185 0 0.361 0.073 0.492 0.204s0.204 0.307 0.204 0.492v14.609h14.609c0.185 0 0.361 0.073 0.492 0.204s0.204 0.307 0.204 0.492z"></path>
</svg>
