<svg aria-hidden="true" style="position: absolute; width: 0; height: 0; overflow: hidden;" version="1.1" xmlns="http://www.w3.org/2000/svg" xmlns:xlink="http://www.w3.org/1999/xlink">
<defs>
<symbol id="icon-plus" viewBox="0 0 34 32">
<path d="M32.762 16c0 0.185-0.073 0.361-0.204 0.492s-0.307 0.204-0.492 0.204h-14.609v14.609c0 0.185-0.073 0.361-0.204 0.492s-0.307 0.204-0.492 0.204c-0.185 0-0.361-0.073-0.492-0.204s-0.204-0.307-0.204-0.492v-14.609h-14.609c-0.184 0-0.361-0.073-0.492-0.204s-0.204-0.307-0.204-0.492c0-0.185 0.073-0.361 0.204-0.492s0.307-0.204 0.492-0.204h14.609v-14.609c0-0.184 0.073-0.361 0.204-0.492s0.307-0.204 0.492-0.204c0.185 0 0.361 0.073 0.492 0.204s0.204 0.307 0.204 0.492v14.609h14.609c0.185 0 0.361 0.073 0.492 0.204s0.204 0.307 0.204 0.492z"></path>
</symbol>
<symbol id="icon-share" viewBox="0 0 35 32">
<path stroke-width="3.3684" stroke-miterlimit="4" stroke-linecap="round" stroke-linejoin="round" d="M32.842 16l-12.126-13.474v6.737c-6.063 0-18.189 4.042-18.189 20.211 0-2.246 3.638-6.737 18.189-6.737v6.737l12.126-13.474z"></path>
</symbol>
<symbol id="icon-like" viewBox="0 0 39 32">
<path fill="#f91313" style="fill: var(--color1, #f91313)" d="M11.127 0c-5.744 0-10.4 4.591-10.4 10.255 0 10.255 12.291 19.577 18.909 21.745 6.618-2.169 18.909-11.491 18.909-21.745 0-5.663-4.656-10.255-10.4-10.255-3.517 0-6.627 1.722-8.509 4.357-1.882-2.635-4.992-4.357-8.509-4.357z"></path>
</symbol>
<symbol id="icon-Phone" viewBox="0 0 32 32">
<path d="M22.667 28.001c-2.205-0.002-4.376-0.547-6.32-1.587l-0.6-0.333c-4.146-2.229-7.544-5.628-9.773-9.773l-0.333-0.6c-1.067-1.955-1.63-4.146-1.64-6.373v-0.893c-0.001-0.711 0.283-1.392 0.787-1.893l2.253-2.253c0.219-0.221 0.528-0.327 0.836-0.288s0.581 0.219 0.737 0.488l3 5.147c0.303 0.524 0.216 1.186-0.213 1.613l-2.52 2.52c-0.209 0.207-0.258 0.527-0.12 0.787l0.467 0.88c1.676 3.105 4.226 5.65 7.333 7.32l0.88 0.48c0.26 0.138 0.58 0.089 0.787-0.12l2.52-2.52c0.427-0.429 1.089-0.517 1.613-0.213l5.147 3c0.268 0.157 0.448 0.429 0.488 0.737s-0.067 0.617-0.288 0.836l-2.253 2.253c-0.501 0.504-1.183 0.787-1.893 0.787h-0.893z"></path>
</symbol>
<symbol id="icon-Pin" viewBox="0 0 32 32">
<path d="M16 2.666c-5.325 0-9.658 4.332-9.658 9.658 0 6.609 8.643 16.311 9.011 16.72 0.346 0.385 0.949 0.384 1.294 0 0.368-0.41 9.011-10.112 9.011-16.72-0-5.325-4.332-9.658-9.658-9.658zM16 17.182c-2.679 0-4.859-2.18-4.859-4.859s2.18-4.859 4.859-4.859c2.679 0 4.859 2.18 4.859 4.859s-2.18 4.859-4.859 4.859z"></path>
</symbol>
<symbol id="icon-comment" viewBox="0 0 34 32">
<path d="M29.6 0h-25.6c-1.76 0-3.2 1.44-3.2 3.2v19.2c0 1.76 1.44 3.2 3.2 3.2h22.4l6.4 6.4v-28.8c0-1.76-1.44-3.2-3.2-3.2zM29.6 24.32l-1.92-1.92h-23.68v-19.2h25.6v21.12z"></path>
</symbol>
<symbol id="icon-Email" viewBox="0 0 32 32">
<path d="M5.333 5.334h21.333c1.473 0 2.667 1.194 2.667 2.667v16c0 1.473-1.194 2.667-2.667 2.667h-21.333c-1.473 0-2.667-1.194-2.667-2.667v-16c0-1.473 1.194-2.667 2.667-2.667zM18.2 20.601l8.467-5.933v-2.8l-9.8 6.867c-0.521 0.362-1.212 0.362-1.733 0l-9.8-6.867v2.8l8.467 5.933c1.321 0.924 3.079 0.924 4.4 0z"></path>
</symbol>
<symbol id="icon-facebook" viewBox="0 0 16 32">
<path d="M16 0.231v5.077h-2.907c-1.062 0-1.778 0.231-2.148 0.692s-0.556 1.154-0.556 2.077v3.635h5.426l-0.722 5.692h-4.704v14.596h-5.667v-14.596h-4.722v-5.692h4.722v-4.192c0-2.385 0.642-4.234 1.926-5.548s2.994-1.971 5.13-1.971c1.815 0 3.222 0.077 4.222 0.231z"></path>
</symbol>
<symbol id="icon-instagram" viewBox="0 0 32 32">
<path d="M16 10.667c-1.415 0-2.771 0.562-3.771 1.562s-1.562 2.357-1.562 3.771c0 1.415 0.562 2.771 1.562 3.771s2.357 1.562 3.771 1.562 2.771-0.562 3.771-1.562c1-1 1.562-2.357 1.562-3.771s-0.562-2.771-1.562-3.771c-1-1-2.357-1.562-3.771-1.562z"></path>
<path d="M9.6 0c-2.546 0-4.988 1.011-6.788 2.812s-2.812 4.242-2.812 6.788v12.8c0 2.546 1.011 4.988 2.812 6.788s4.242 2.812 6.788 2.812h12.8c2.546 0 4.988-1.011 6.788-2.812s2.812-4.242 2.812-6.788v-12.8c0-2.546-1.011-4.988-2.812-6.788s-4.242-2.812-6.788-2.812h-12.8zM8.533 16c0-1.98 0.787-3.879 2.187-5.28s3.299-2.187 5.28-2.187c1.98 0 3.879 0.787 5.28 2.187s2.187 3.299 2.187 5.28-0.787 3.879-2.187 5.28c-1.4 1.4-3.3 2.187-5.28 2.187s-3.879-0.787-5.28-2.187c-1.4-1.4-2.187-3.3-2.187-5.28zM23.467 8.533v-2.133h2.133v2.133h-2.133z"></path>
</symbol>
<symbol id="icon-twitter" viewBox="0 0 32 32">
<path d="M32 7.075c-1.175 0.525-2.444 0.875-3.769 1.031 1.356-0.813 2.394-2.1 2.887-3.631-1.269 0.75-2.675 1.3-4.169 1.594-1.2-1.275-2.906-2.069-4.794-2.069-3.625 0-6.563 2.938-6.563 6.563 0 0.512 0.056 1.012 0.169 1.494-5.456-0.275-10.294-2.888-13.531-6.862-0.563 0.969-0.887 2.1-0.887 3.3 0 2.275 1.156 4.287 2.919 5.463-1.075-0.031-2.087-0.331-2.975-0.819 0 0.025 0 0.056 0 0.081 0 3.181 2.263 5.838 5.269 6.437-0.55 0.15-1.131 0.231-1.731 0.231-0.425 0-0.831-0.044-1.237-0.119 0.838 2.606 3.263 4.506 6.131 4.563-2.25 1.762-5.075 2.813-8.156 2.813-0.531 0-1.050-0.031-1.569-0.094 2.913 1.869 6.362 2.95 10.069 2.95 12.075 0 18.681-10.006 18.681-18.681 0-0.287-0.006-0.569-0.019-0.85 1.281-0.919 2.394-2.075 3.275-3.394z"></path>
</symbol>
<symbol id="icon-linkedin2" viewBox="0 0 32 32">
<path d="M12 12h5.535v2.837h0.079c0.77-1.381 2.655-2.837 5.464-2.837 5.842 0 6.922 3.637 6.922 8.367v9.633h-5.769v-8.54c0-2.037-0.042-4.657-3.001-4.657-3.005 0-3.463 2.218-3.463 4.509v8.688h-5.767v-18z"></path>
<path d="M2 12h6v18h-6v-18z"></path>
<path d="M8 7c0 1.657-1.343 3-3 3s-3-1.343-3-3c0-1.657 1.343-3 3-3s3 1.343 3 3z"></path>
</symbol>
</defs>
</svg>
